<svg id="Capa_1" enable-background="new 0 0 512.326 512.326" height="512" viewBox="0 0 512.326 512.326" width="512" xmlns="http://www.w3.org/2000/svg"><g><g><path d="m52.272 469.004v-454.925c0-3.634-2.946-6.579-6.579-6.579h-22.665c-3.634 0-6.579 2.946-6.579 6.579v484.168c0 3.634 2.946 6.579 6.579 6.579h466.269c3.634 0 6.579-2.946 6.579-6.579v-22.664c0-3.634-2.946-6.579-6.579-6.579z" fill="#7ca1b1"/></g><g><path d="m495.873 475.583v22.66c0 3.634-2.946 6.58-6.58 6.58h-12.28v-11.33c0-3.634-2.946-6.58-6.58-6.58h-424.675c-6.813 0-12.332-5.532-12.316-12.345l1.101-460.485c0-3.64-2.95-6.58-6.58-6.58h17.73c3.63 0 6.58 2.94 6.58 6.58v454.92h437.02c3.64 0 6.58 2.95 6.58 6.58z" fill="#678d98"/></g><g><g><path d="m95.931 469.004v-245.237c0-4.425 3.587-8.013 8.013-8.013h63.863c4.425 0 8.013 3.587 8.013 8.013v245.237z" fill="#fe5694"/></g><g><path d="m234.13 469.004v-417.828c0-4.425 3.587-8.013 8.013-8.013h63.863c4.425 0 8.013 3.587 8.013 8.013v417.828z" fill="#fea613"/></g><g><path d="m372.33 469.004v-373.201c0-4.425 3.587-8.013 8.013-8.013h63.863c4.425 0 8.013 3.587 8.013 8.013v373.201z" fill="#03bed7"/></g><g><path d="m175.823 223.763v245.24h-17.97v-245.24c0-4.42-3.59-8.01-8.02-8.01h17.97c4.43 0 8.02 3.59 8.02 8.01z" fill="#fd3581"/></g><g><path d="m314.023 51.173v417.83h-17.97v-417.83c0-4.42-3.59-8.01-8.02-8.01h17.97c4.43 0 8.02 3.59 8.02 8.01z" fill="#fb8801"/></g><g><path d="m452.213 95.803v373.2h-17.965v-373.2c0-4.43-3.58-8.01-8.01-8.01h17.965c4.43 0 8.01 3.58 8.01 8.01z" fill="#07b2cd"/></g><path d="m489.298 461.504h-29.58v-365.701c0-8.554-6.959-15.513-15.513-15.513h-63.862c-8.554 0-15.513 6.959-15.513 15.513v365.701h-43.312v-410.328c0-8.554-6.959-15.513-15.513-15.513h-63.863c-8.553 0-15.512 6.959-15.512 15.513v410.328h-43.313v-49.841c0-4.143-3.357-7.5-7.5-7.5s-7.5 3.357-7.5 7.5v49.841h-64.888v-237.737c0-.282.23-.513.513-.513h63.862c.282 0 .513.23.513.513v153.063c0 4.143 3.357 7.5 7.5 7.5s7.5-3.357 7.5-7.5v-153.063c0-8.554-6.959-15.513-15.513-15.513h-63.862c-8.554 0-15.513 6.959-15.513 15.513v237.737h-28.658v-447.425c0-7.764-6.315-14.079-14.079-14.079h-22.664c-7.763 0-14.079 6.315-14.079 14.079v484.168c0 7.764 6.315 14.079 14.079 14.079h325.635c4.143 0 7.5-3.357 7.5-7.5s-3.357-7.5-7.5-7.5h-324.714v-482.326h20.822v454.004c0 4.143 3.357 7.5 7.5 7.5h436.105v20.822h-104.546c-4.143 0-7.5 3.357-7.5 7.5s3.357 7.5 7.5 7.5h105.468c7.764 0 14.079-6.315 14.079-14.079v-22.664c0-7.764-6.315-14.079-14.079-14.079zm-247.667 0v-410.328c0-.282.229-.513.512-.513h63.863c.282 0 .513.23.513.513v410.328zm138.199 0v-365.701c0-.282.23-.513.513-.513h63.862c.282 0 .513.23.513.513v365.701z"/></g></g></svg>