<svg id="Layer_1" enable-background="new 0 0 512 512" height="512" viewBox="0 0 512 512" width="512" xmlns="http://www.w3.org/2000/svg"><path d="m416.667 192.8h-145.667v-49.267c0-8.284-6.716-15-15-15s-15 6.716-15 15v49.267h-145.667c-8.284 0-15 6.716-15 15v48.2c0 8.284 6.716 15 15 15s15-6.716 15-15v-33.2h130.667v33.2c0 8.284 6.716 15 15 15s15-6.716 15-15v-33.2h130.667v33.2c0 8.284 6.716 15 15 15s15-6.716 15-15v-48.2c0-8.284-6.716-15-15-15z" fill="#004173"/><path d="m384.533 158.533h-257.066c-8.284 0-15-6.716-15-15v-128.533c0-8.284 6.716-15 15-15h257.066c8.284 0 15 6.716 15 15v128.533c0 8.285-6.716 15-15 15z" fill="#faf0fa"/><path d="m384.533 0h-128.547v158.533h128.547c8.284 0 15-6.716 15-15v-128.533c0-8.284-6.716-15-15-15z" fill="#e1e6f5"/><g clip-rule="evenodd" fill-rule="evenodd"><circle cx="191.733" cy="79.267" fill="#00beff" r="15"/><circle cx="256" cy="79.267" fill="#00beff" r="15"/><circle cx="320.267" cy="79.267" fill="#3c8cff" r="15"/></g><path d="m85.319 413.24c-29.768 0-53.986-24.218-53.986-53.986s24.218-53.987 53.986-53.987 53.987 24.218 53.987 53.987c0 29.768-24.218 53.986-53.987 53.986z" fill="#ffd7be"/><path d="m139.306 359.254c0-29.768-24.218-53.987-53.987-53.987v107.973c29.769 0 53.987-24.218 53.987-53.986z" fill="#ffbeb4"/><path d="m157.226 512h-143.777c-7.376 0-13.448-6.036-13.449-13.412-.008-47.713 38.85-85.626 85.843-85.346 46.906.279 84.824 38.269 84.824 85.318 0 7.422-6.018 13.44-13.441 13.44z" fill="#06e664"/><path d="m170.667 498.559c0-47.048-37.917-85.038-84.824-85.318-.175-.001-.349.004-.524.004v98.755h71.907c7.423 0 13.441-6.018 13.441-13.441z" fill="#00a06e"/><path d="m255.986 413.24c-29.768 0-53.986-24.218-53.986-53.986s24.218-53.987 53.986-53.987 53.987 24.218 53.987 53.987c0 29.768-24.218 53.986-53.987 53.986z" fill="#ffd7be"/><path d="m309.973 359.254c0-29.768-24.218-53.987-53.987-53.987v107.973c29.769 0 53.987-24.218 53.987-53.986z" fill="#ffbeb4"/><path d="m327.893 512h-143.777c-7.376 0-13.448-6.036-13.449-13.413-.008-47.713 38.85-85.626 85.843-85.346 46.906.279 84.824 38.269 84.824 85.318 0 7.423-6.018 13.441-13.441 13.441z" fill="#3c8cff"/><path d="m341.334 498.559c0-47.048-37.917-85.038-84.824-85.318-.175-.001-.349.004-.524.004v98.755h71.907c7.424 0 13.441-6.018 13.441-13.441z" fill="#5a5aff"/><path d="m426.652 413.24c-29.768 0-53.986-24.218-53.986-53.986s24.218-53.987 53.986-53.987 53.987 24.218 53.987 53.987c0 29.768-24.218 53.986-53.987 53.986z" fill="#ffd7be"/><path d="m480.639 359.254c0-29.768-24.218-53.987-53.987-53.987v107.973c29.769 0 53.987-24.218 53.987-53.986z" fill="#ffbeb4"/><path d="m498.559 512h-143.777c-7.376 0-13.448-6.036-13.449-13.413-.008-47.713 38.85-85.626 85.843-85.346 46.907.28 84.824 38.27 84.824 85.318 0 7.423-6.017 13.441-13.441 13.441z" fill="#ff645a"/><path d="m512 498.559c0-47.048-37.917-85.038-84.824-85.318-.175-.001-.349.004-.524.004v98.755h71.907c7.424 0 13.441-6.018 13.441-13.441z" fill="#ff3053"/><path d="m256 64.267c-.005 0-.009.001-.014.001v29.999c.005 0 .009.001.014.001 8.28 0 15-6.72 15-15s-6.72-15.001-15-15.001z" fill="#3c8cff"/></svg>